# xmcd
#
# Track frame offsets:
#   150
#   12578
#   29232
#   47678
#   61004
#   73564
#   88792
#   105615
#   122592
#   131516
#   146633
#   161896
#   183108
#   210137
#   228326
#   244996
#   262453
#   271147
#
# Disc length: 3764 seconds
#
# Revision: 0
# Processed by: cddbd v1.4PL0 Copyright (c) Steve Scherf et al.
# Submitted via: uFREEDB ActiveX Control 1.5
#
DISCID=060eb212
DTITLE=Bruno e Marrone - ao vivo em Araguari
DYEAR=2001
DGENRE=Country
TTITLE0=Dormi na praça
TTITLE1=Como eu te amo
TTITLE2=Pot pourri-Faz de conta
TTITLE3=Alçapão
TTITLE4=O campeão
TTITLE5=Goiás é mais
TTITLE6=Vida Vazia
TTITLE7=Parabéns pro nosso amor
TTITLE8=Acorrentado em você
TTITLE9=Favo de mel
TTITLE10=Te amo e não te quero
TTITLE11=Rei do rodeio
TTITLE12=Pot-pourri de Roberto Carlos
TTITLE13=Fruto Especial
TTITLE14=Agarrada em mim
TTITLE15=Machuca demais
TTITLE16=Dormi na praça
TTITLE17=Olha o trem querendo
EXTD=
EXTT0=
EXTT1=
EXTT2=
EXTT3=
EXTT4=
EXTT5=
EXTT6=
EXTT7=
EXTT8=
EXTT9=
EXTT10=
EXTT11=
EXTT12=
EXTT13=
EXTT14=
EXTT15=
EXTT16=
EXTT17=
PLAYORDER=
